<?xml version="1.0" standalone="no"?>
<!DOCTYPE svg PUBLIC "-//W3C//DTD SVG 20010904//EN"
 "http://www.w3.org/TR/2001/REC-SVG-20010904/DTD/svg10.dtd">
<svg version="1.0" xmlns="http://www.w3.org/2000/svg"
 width="888.000000pt" height="763.000000pt" viewBox="0 0 888.000000 763.000000"
 preserveAspectRatio="xMidYMid meet">

<g transform="translate(0.000000,763.000000) scale(0.100000,-0.100000)"
fill="#000000" stroke="none">
<path d="M3680 7491 c-14 -5 -41 -16 -60 -26 l-35 -19 80 -13 c122 -21 228
-77 319 -168 84 -84 114 -145 123 -256 7 -78 -4 -199 -18 -199 -6 0 -48 33
-94 74 -167 146 -370 207 -484 146 -56 -29 -82 -110 -61 -186 11 -40 30 -60
30 -33 0 27 35 81 61 94 94 49 233 -26 295 -159 38 -81 35 -86 -43 -86 -100 0
-167 -33 -195 -96 -36 -83 -24 -223 28 -302 21 -33 30 -21 33 45 5 134 119
214 218 153 44 -27 58 -52 83 -150 45 -180 94 -276 178 -351 42 -36 51 -40 84
-35 21 3 58 14 83 24 l46 18 -46 33 c-52 37 -117 120 -134 170 -20 60 -12 158
23 291 18 69 55 206 81 305 42 158 48 193 49 285 1 101 -1 108 -33 175 -59
121 -189 225 -325 261 -54 15 -243 18 -286 5z"/>
<path d="M4863 7485 c-188 -51 -327 -199 -357 -380 -10 -61 17 -217 74 -425
113 -413 117 -490 30 -600 -110 -139 -354 -243 -600 -257 -91 -5 -99 -4 -170
26 -59 25 -95 33 -170 38 -102 6 -113 -5 -26 -26 57 -14 117 -43 165 -79 32
-24 45 -26 152 -30 103 -4 187 3 312 24 l37 7 -29 -79 c-53 -144 -99 -249
-110 -249 -5 0 -59 46 -120 103 -60 56 -114 102 -119 102 -8 0 -92 -84 -92
-93 0 -2 54 -50 120 -107 66 -57 117 -107 113 -111 -17 -16 -342 -139 -368
-139 -39 0 -167 46 -266 96 -61 30 -106 62 -156 111 -77 75 -113 133 -143 230
-19 61 -27 133 -15 133 14 0 491 -92 497 -96 3 -2 22 15 41 38 53 67 54 71 11
53 -40 -16 -50 -13 -56 20 -4 21 -14 22 -79 10 -32 -6 -38 -5 -44 15 -7 23
-14 23 -87 5 -22 -6 -26 -3 -32 25 -6 33 -12 34 -57 15 -12 -4 -40 13 -93 60
-42 37 -74 71 -71 76 3 4 23 14 45 20 36 11 43 9 130 -35 50 -26 94 -45 97
-43 2 3 0 14 -6 25 -18 34 -14 34 49 2 75 -38 85 -38 65 0 -8 16 -15 31 -15
35 0 14 39 1 130 -45 55 -27 106 -50 114 -50 23 0 173 221 162 239 -3 4 -117
11 -253 14 -486 12 -698 54 -976 193 l-127 64 -78 -30 c-42 -17 -83 -34 -90
-38 -9 -6 25 -29 105 -72 198 -106 204 -110 199 -128 -3 -9 -8 -48 -12 -85 -6
-66 -7 -68 -31 -63 -13 4 -125 56 -249 116 l-226 110 -71 -56 c-66 -54 -69
-58 -51 -72 10 -7 154 -81 319 -163 165 -82 308 -159 317 -170 18 -21 54 -166
44 -176 -3 -4 -171 76 -372 176 -201 100 -368 180 -371 177 -3 -3 6 -29 20
-58 51 -111 168 -197 642 -473 277 -161 419 -275 610 -489 l52 -58 178 116
c159 104 181 116 209 110 69 -15 337 -106 334 -113 -3 -10 -143 -131 -200
-175 -21 -16 -38 -35 -38 -43 0 -8 25 -40 55 -71 l56 -57 130 134 c72 73 134
130 138 125 7 -8 141 -395 141 -407 0 -2 -37 -8 -81 -11 -90 -8 -170 -31 -247
-70 -71 -36 -187 -153 -218 -220 -36 -79 -57 -189 -50 -261 6 -62 42 -185 54
-185 4 0 8 19 8 43 1 47 64 248 75 242 4 -3 10 -19 13 -37 12 -62 89 -191 131
-220 l40 -26 7 61 c4 34 14 91 22 127 9 36 20 92 26 124 12 72 47 121 104 147
76 34 178 18 228 -38 58 -64 73 -177 37 -287 l-21 -64 21 -29 c12 -16 62 -67
112 -112 101 -94 99 -94 148 -6 62 110 82 174 88 280 9 165 -26 264 -130 373
-44 45 -82 73 -134 98 l-73 34 36 98 c20 53 55 151 79 217 55 152 56 155 64
155 3 0 53 -61 111 -135 58 -74 111 -135 118 -135 20 0 122 73 122 87 0 6 -47
67 -105 135 l-105 123 139 46 c209 70 172 75 361 -47 91 -58 170 -108 176
-111 6 -2 69 54 140 124 174 174 271 248 512 392 31 18 129 76 217 129 222
132 327 205 384 268 48 53 99 140 88 151 -4 3 -168 -76 -366 -176 -198 -99
-367 -181 -374 -181 -12 0 -12 9 0 63 29 131 -3 105 358 286 179 90 325 169
325 176 0 12 -59 65 -110 98 -24 16 -30 14 -185 -64 -212 -107 -329 -160 -333
-150 -1 4 -8 45 -16 90 l-13 81 159 82 c87 46 157 87 155 93 -2 5 -41 24 -87
42 l-84 31 -126 -63 c-287 -143 -467 -180 -958 -192 -139 -3 -255 -10 -258
-15 -6 -10 72 -150 114 -205 13 -18 30 -33 37 -33 6 0 63 25 125 55 62 31 114
54 116 52 2 -2 -1 -18 -7 -36 -6 -18 -8 -35 -5 -38 4 -4 28 4 54 17 26 14 51
26 56 29 5 2 6 -8 2 -23 -3 -14 -3 -26 2 -26 4 0 47 20 94 45 84 42 88 44 128
32 23 -7 42 -16 43 -22 0 -5 -32 -38 -72 -73 -52 -45 -77 -62 -89 -57 -43 18
-49 17 -61 -15 -9 -28 -14 -31 -36 -26 -14 3 -36 9 -50 12 -17 4 -25 2 -25 -7
-1 -35 -15 -40 -64 -23 -52 18 -65 12 -66 -28 0 -22 2 -21 -50 -3 l-42 15 17
-28 c10 -15 27 -37 39 -50 26 -29 49 -27 330 29 109 22 201 37 204 34 3 -3 1
-37 -5 -76 -17 -106 -62 -190 -149 -276 -61 -61 -92 -82 -187 -128 -62 -30
-143 -62 -179 -72 l-65 -17 -79 28 c-143 51 -284 109 -284 117 0 4 47 51 105
105 58 53 105 102 105 108 0 6 -17 31 -39 56 l-38 44 -110 -107 c-60 -59 -115
-107 -121 -107 -6 0 -14 10 -18 23 -3 12 -15 40 -25 62 -38 86 -119 288 -119
299 0 6 37 31 82 56 156 86 235 197 285 405 23 97 31 115 63 148 32 31 44 37
79 37 99 0 171 -85 171 -203 0 -45 12 -41 40 12 32 64 45 156 30 226 -21 101
-90 145 -225 145 -55 0 -55 0 -49 28 30 126 124 217 236 229 48 5 57 2 85 -21
18 -15 38 -43 45 -61 6 -19 15 -35 19 -35 13 0 31 100 25 135 -9 46 -48 91
-93 106 -21 7 -68 10 -113 7 -120 -7 -254 -78 -392 -206 -33 -30 -49 -40 -52
-31 -12 38 -15 155 -6 220 14 99 48 169 113 233 105 102 211 154 330 164 81 6
83 18 6 49 -44 18 -73 22 -159 22 -58 0 -129 -7 -157 -14z m-379 -1831 c30
-82 63 -173 74 -201 11 -29 17 -53 14 -53 -3 0 -36 18 -73 40 -37 22 -74 40
-82 40 -9 0 -46 -18 -84 -39 -37 -21 -69 -38 -71 -36 -2 2 29 86 127 348 13
37 29 63 33 59 5 -5 33 -76 62 -158z m-88 -270 c-3 -8 -19 -14 -38 -14 -18 0
-51 -5 -73 -10 -22 -5 -41 -7 -43 -5 -2 2 31 24 75 49 l78 46 3 -26 c2 -14 1
-32 -2 -40z m113 24 c39 -24 71 -45 71 -49 0 -7 -120 11 -140 20 -17 9 -27 71
-11 71 6 0 42 -19 80 -42z m-144 -100 c-14 -24 -40 -69 -57 -100 -17 -32 -34
-58 -38 -58 -7 0 -73 171 -68 175 4 4 129 22 161 24 l28 1 -26 -42z m188 28
c37 -7 69 -15 71 -17 5 -5 -57 -169 -64 -169 -3 0 -20 26 -37 58 -18 31 -44
76 -58 100 l-26 42 23 0 c13 -1 53 -7 91 -14z m-70 -105 c32 -55 57 -102 57
-105 0 -3 -56 -6 -125 -6 -69 0 -125 4 -125 9 0 16 122 211 130 206 3 -2 32
-49 63 -104z m-322 17 c3 -95 2 -158 -2 -163 -3 -2 -50 9 -104 25 -55 16 -128
37 -162 46 -35 9 -63 19 -63 23 0 7 294 109 318 110 7 1 12 -14 13 -41z m682
-9 c84 -28 158 -52 166 -55 8 -2 12 -7 9 -9 -9 -9 -340 -96 -345 -91 -9 9 -16
134 -9 170 4 20 12 36 17 36 6 0 79 -23 162 -51z m-613 -131 c-12 -10 -26 -18
-31 -18 -5 0 -9 42 -8 93 l0 92 30 -75 31 -75 -22 -17z m408 22 l-3 -50 -28
23 -28 22 28 75 28 75 3 -47 c2 -26 2 -70 0 -98z m-333 -82 c70 -92 73 -92
-59 -10 l-39 24 24 19 c13 10 26 19 29 19 3 0 24 -23 45 -52z m190 -7 c-82
-104 -75 -103 -139 -23 -31 38 -56 72 -56 76 0 3 54 6 121 6 l120 0 -46 -59z
m120 19 c-7 -11 -136 -83 -140 -78 -2 2 19 29 46 61 49 55 51 56 75 41 13 -9
22 -20 19 -24z m-120 -311 c-36 -129 -68 -242 -71 -253 -9 -29 -20 -7 -44 94
-13 52 -40 158 -62 235 -21 77 -38 145 -38 152 0 7 28 -3 68 -25 l69 -36 69
40 c38 22 70 37 72 33 1 -3 -27 -111 -63 -240z"/>
<path d="M4365 5230 c-3 -5 1 -10 9 -10 22 0 20 -13 -4 -28 -30 -18 -24 -32
13 -31 27 1 28 2 9 7 -23 7 -23 7 -3 24 12 10 18 24 15 33 -7 17 -30 20 -39 5z"/>
<path d="M4420 5216 c-11 -29 -5 -52 14 -59 23 -9 38 9 34 44 -4 43 -33 52
-48 15z m40 -22 c0 -15 -6 -24 -15 -24 -15 0 -21 40 -9 53 12 11 24 -3 24 -29z"/>
<path d="M736 7423 c-73 -117 -136 -304 -155 -460 -6 -51 -9 -105 -5 -120 20
-84 156 -307 290 -473 94 -116 208 -243 202 -225 -2 6 -29 62 -60 125 -73 149
-110 242 -152 389 -83 285 -114 569 -82 749 7 39 10 72 5 72 -4 0 -24 -26 -43
-57z"/>
<path d="M8047 7420 c13 -107 8 -337 -11 -460 -35 -239 -125 -507 -244 -735
-23 -44 -40 -81 -38 -83 6 -5 180 197 257 297 78 103 134 192 192 303 40 78
42 87 41 163 -3 160 -102 461 -183 555 l-22 25 8 -65z"/>
<path d="M304 7033 c3 -38 8 -108 11 -158 31 -487 262 -1128 523 -1453 19 -24
32 -46 29 -49 -12 -11 -252 193 -374 318 -107 109 -245 282 -329 411 -37 57
-70 107 -74 111 -12 14 19 -183 46 -293 34 -134 69 -230 139 -373 100 -207
268 -430 402 -538 29 -24 51 -44 50 -46 -9 -8 -140 45 -265 107 -162 81 -255
142 -352 229 -39 35 -73 61 -75 59 -7 -6 63 -169 97 -225 166 -274 457 -504
821 -647 111 -44 146 -62 159 -84 10 -15 25 -38 35 -51 l17 -24 -89 8 c-292
23 -651 156 -844 313 -41 33 -43 34 -36 11 36 -122 225 -314 380 -385 l40 -19
-72 -3 c-40 -2 -73 -7 -73 -11 0 -19 233 -232 311 -284 148 -98 308 -159 478
-182 54 -7 54 -8 29 -21 -40 -21 -165 -36 -241 -29 -78 8 -179 33 -255 64 -52
21 -53 21 -42 1 15 -28 144 -123 215 -158 102 -50 191 -73 308 -79 59 -3 107
-9 107 -13 0 -4 -19 -15 -42 -23 -74 -28 -148 -40 -209 -33 -72 8 -76 -3 -13
-38 95 -53 210 -69 314 -45 60 14 105 14 141 -1 34 -14 33 -13 15 -48 -34 -64
-105 -112 -169 -112 l-32 -1 40 -24 c50 -31 91 -31 158 -2 72 31 168 31 219
-1 102 -63 119 -197 28 -217 -62 -14 -109 49 -76 100 16 24 16 25 -7 25 -34 0
-74 -35 -82 -70 -8 -38 24 -112 59 -135 74 -49 178 -34 240 35 l36 40 0 139
c0 76 -3 151 -6 167 -5 21 -26 43 -81 83 -119 85 -221 169 -237 193 -18 28
-30 135 -56 508 -11 157 -27 373 -36 480 -16 207 -11 299 20 358 9 17 16 45
16 63 0 68 91 294 140 346 32 35 40 60 32 100 -7 34 -15 42 -74 74 -127 69
-213 133 -304 224 -94 94 -136 149 -192 250 l-33 60 5 -81 c14 -215 160 -435
357 -539 l68 -36 -24 -36 c-38 -55 -84 -213 -106 -358 -10 -71 -19 -142 -19
-157 0 -43 -23 -34 -79 28 -160 181 -199 464 -63 464 29 0 72 -42 72 -71 0
-21 -1 -21 -18 -6 -39 35 -72 7 -72 -61 0 -38 42 -122 77 -155 l30 -28 6 75
c5 59 44 205 73 271 2 6 -9 19 -26 28 -61 36 -155 134 -212 221 -43 65 -74 99
-116 129 -99 70 -197 153 -292 248 l-92 92 7 -54 c11 -81 70 -257 121 -359 65
-130 197 -290 239 -290 24 0 55 51 55 90 0 40 -30 93 -67 118 -23 14 -23 14
-23 -29 l0 -42 -25 23 c-51 48 -97 135 -119 223 l-7 28 48 -32 c72 -49 187
-144 217 -179 35 -42 49 -100 37 -148 -13 -46 -65 -130 -86 -138 -20 -8 -82
35 -161 113 -151 149 -243 320 -289 543 -16 75 -33 320 -22 320 3 0 28 -30 55
-67 64 -86 245 -263 340 -332 40 -30 75 -52 77 -49 2 2 -3 44 -11 93 l-15 90
-98 100 c-272 278 -487 568 -650 878 -40 75 -75 137 -77 137 -3 0 -3 -30 0
-67z m478 -1797 c63 -41 163 -98 223 -126 194 -89 175 -73 205 -177 29 -101
67 -166 163 -277 94 -110 117 -178 76 -230 -52 -67 -166 -4 -147 81 4 15 7 14
18 -9 17 -36 49 -46 67 -22 18 25 9 61 -25 101 -15 17 -53 62 -84 98 -61 72
-115 168 -143 253 l-17 52 -106 53 c-59 29 -143 76 -186 105 -44 28 -81 50
-84 48 -6 -7 58 -96 107 -149 24 -26 42 -50 39 -52 -8 -9 -132 90 -183 146
-26 30 -65 80 -86 113 -35 54 -79 152 -79 178 0 5 29 -17 65 -50 35 -33 115
-94 177 -136z m13 -406 c83 -27 183 -58 224 -69 125 -34 140 -52 183 -207 34
-128 55 -171 104 -214 52 -45 100 -63 150 -56 l41 5 18 -78 c21 -94 17 -216
-9 -255 -9 -14 -20 -26 -25 -26 -4 0 -25 15 -45 33 l-38 32 31 34 c66 71 25
201 -63 201 -30 0 -56 -33 -49 -61 8 -28 48 -46 67 -30 11 9 16 9 22 0 9 -15
-30 -49 -57 -49 -74 0 -121 91 -89 175 8 22 6 32 -14 58 -37 49 -82 150 -101
228 -25 99 -40 111 -225 175 -85 29 -159 54 -164 54 -19 0 60 -72 127 -117 37
-25 66 -47 64 -50 -8 -7 -124 44 -169 75 -51 35 -106 94 -143 151 -30 48 -31
55 -7 46 9 -3 85 -28 167 -55z m125 -585 c208 -2 237 -21 324 -200 30 -60 73
-131 96 -157 23 -27 37 -48 32 -48 -6 0 -39 19 -73 43 -59 39 -68 50 -114 141
-56 109 -88 141 -154 155 -39 8 -167 -1 -179 -13 -8 -8 9 -44 39 -86 29 -40
90 -77 109 -65 18 11 10 43 -16 75 -15 17 -24 33 -21 37 14 13 81 -11 113 -40
29 -28 129 -195 121 -203 -10 -11 -156 32 -223 66 -100 49 -184 134 -232 233
-17 38 -32 71 -32 74 0 3 15 2 33 -2 17 -5 97 -9 177 -10z"/>
<path d="M8455 6989 c-150 -299 -371 -600 -657 -895 -76 -78 -108 -118 -108
-135 0 -13 -7 -53 -15 -88 -9 -35 -13 -66 -11 -68 7 -8 147 99 221 169 68 63
204 211 238 258 17 24 18 22 13 -105 -9 -234 -59 -399 -173 -572 -62 -95 -197
-236 -255 -267 -46 -25 -57 -17 -100 68 -37 74 -36 145 4 201 36 50 250 216
263 204 7 -7 -20 -90 -45 -138 -23 -46 -87 -121 -102 -121 -6 0 -7 17 -3 42
l7 42 -23 -15 c-38 -26 -69 -78 -69 -119 0 -40 31 -90 55 -90 26 0 131 113
190 203 66 102 117 222 151 356 39 154 38 154 -78 40 -57 -56 -154 -140 -217
-187 -97 -74 -123 -100 -171 -172 -55 -82 -150 -181 -217 -228 l-31 -22 23
-58 c32 -78 55 -170 58 -231 2 -60 16 -65 51 -18 51 67 74 175 44 205 -17 17
-45 15 -56 -4 -16 -28 -25 3 -10 33 15 32 54 49 91 39 37 -9 62 -79 53 -151
-9 -76 -31 -136 -79 -216 -39 -65 -121 -158 -131 -148 -3 2 -14 70 -26 149
-26 178 -52 275 -96 360 -19 35 -34 67 -34 71 0 3 30 21 68 40 189 95 353 355
351 559 l0 55 -23 -45 c-46 -94 -103 -168 -211 -275 -90 -90 -131 -122 -225
-177 -63 -38 -119 -69 -123 -71 -5 -1 -11 -23 -14 -49 -5 -41 -2 -51 25 -85
46 -57 129 -239 142 -313 6 -36 16 -78 22 -95 34 -103 35 -166 8 -521 -11
-143 -29 -380 -40 -528 -14 -179 -26 -280 -36 -300 -9 -20 -67 -70 -164 -141
l-149 -110 0 -176 -1 -175 33 -31 c17 -17 42 -36 54 -42 34 -17 124 -13 163 7
61 32 86 111 55 171 -16 31 -33 41 -72 41 -25 0 -25 -1 -10 -18 24 -27 21 -59
-9 -88 -30 -31 -67 -27 -101 12 -30 33 -29 67 2 120 53 90 160 117 276 70 80
-32 107 -32 162 -4 l42 22 -42 7 c-23 4 -55 15 -71 23 -31 16 -102 95 -102
113 0 9 22 21 72 36 9 3 45 -1 80 -9 98 -24 209 -15 288 23 117 56 117 60 4
61 -99 0 -203 24 -211 49 -2 6 37 12 104 16 120 6 203 30 321 92 76 40 176
117 201 154 l15 24 -34 -18 c-153 -79 -350 -102 -500 -58 l-55 16 111 22 c269
54 430 143 642 355 l105 105 -79 5 -79 5 65 34 c97 49 181 113 238 179 81 93
163 251 100 192 -134 -126 -513 -282 -764 -315 -131 -17 -174 -19 -174 -6 0 4
15 28 34 52 30 39 47 49 147 88 359 139 637 346 801 598 57 87 146 268 136
278 -2 2 -35 -23 -73 -56 -103 -88 -235 -174 -360 -234 -99 -48 -237 -105
-254 -105 -3 0 42 46 100 103 279 269 457 627 524 1051 9 54 14 100 11 103 -2
3 -17 -17 -32 -44 -33 -57 -126 -189 -202 -288 -109 -139 -531 -539 -550 -520
-3 2 18 35 45 72 259 360 443 847 497 1318 18 160 30 345 22 345 -3 0 -31 -50
-61 -111z m-185 -1615 c-32 -93 -80 -165 -164 -250 -71 -71 -176 -154 -176
-140 0 3 25 34 56 68 31 35 65 81 76 102 l20 40 -23 -16 c-132 -86 -184 -116
-265 -155 -90 -42 -94 -46 -105 -86 -21 -81 -97 -211 -170 -292 -81 -91 -105
-135 -89 -165 15 -29 35 -25 65 13 l27 32 -5 -45 c-7 -51 -34 -80 -77 -80 -42
0 -59 9 -76 42 -28 55 -4 114 89 217 80 89 132 177 158 266 33 112 30 109 126
150 189 81 365 190 474 294 35 33 67 60 71 61 4 0 -2 -25 -12 -56z m-72 -516
c-47 -86 -124 -156 -225 -205 -52 -25 -96 -43 -98 -41 -3 2 28 27 68 55 69 49
139 113 123 113 -12 0 -241 -78 -288 -99 -59 -26 -75 -46 -102 -137 -30 -99
-67 -181 -99 -220 -25 -30 -25 -32 -11 -73 21 -61 1 -122 -48 -147 -35 -18
-57 -18 -80 3 -25 22 -23 36 5 29 27 -6 67 18 67 41 0 50 -71 70 -107 31 -60
-66 -58 -142 4 -193 l24 -20 -42 -32 c-24 -18 -47 -33 -51 -33 -5 0 -16 17
-26 38 -20 45 -20 192 0 267 l13 50 41 -3 c79 -6 164 50 208 138 13 25 33 83
46 130 27 102 52 154 84 175 13 9 57 25 97 36 105 29 348 107 384 124 17 7 31
14 33 14 2 1 -7 -18 -20 -41z m-88 -609 c0 -27 -70 -139 -122 -195 -62 -66
-152 -120 -247 -148 -56 -16 -111 -21 -111 -10 0 17 91 171 113 192 24 23 75
42 111 42 17 0 16 -5 -12 -33 -67 -69 -12 -111 61 -47 33 29 75 105 64 116
-12 13 -143 23 -177 14 -70 -19 -94 -43 -150 -150 -56 -106 -92 -144 -171
-177 l-30 -13 40 46 c22 26 68 100 101 165 87 171 136 201 315 192 50 -2 110
0 135 5 63 14 80 14 80 1z"/>
<path d="M5075 5875 c-33 -7 -79 -23 -102 -34 -52 -26 -100 -26 -223 -1 l-95
19 -52 -27 c-29 -15 -53 -30 -53 -33 0 -17 189 -40 326 -41 l102 0 68 41 c66
40 147 71 186 71 10 0 18 5 18 10 0 14 -103 11 -175 -5z"/>
<path d="M1991 5564 c-18 -15 -48 -50 -67 -78 -39 -58 -45 -50 71 -86 67 -21
195 -87 195 -101 0 -13 -71 -69 -86 -69 -9 0 -59 16 -111 35 -146 55 -146 55
-178 1 -15 -25 -25 -52 -22 -60 3 -8 46 -28 96 -46 50 -18 91 -35 91 -39 0 -3
-15 -24 -34 -46 l-34 -40 -96 3 c-105 4 -104 4 -108 -58 -3 -34 -2 -34 47 -43
28 -4 54 -12 58 -16 4 -5 0 -24 -9 -45 -18 -36 -18 -36 -80 -36 -35 0 -65 -4
-69 -9 -3 -6 4 -144 15 -308 17 -252 40 -616 53 -847 4 -68 8 -73 173 -194 54
-39 115 -85 134 -101 l35 -30 0 -218 0 -218 -145 -108 c-80 -59 -146 -111
-147 -115 -3 -7 100 -85 229 -176 66 -45 68 -48 88 -119 12 -39 37 -119 56
-177 19 -58 34 -112 34 -120 0 -8 -22 -59 -48 -114 l-47 -98 -80 82 c-44 45
-85 91 -92 103 -14 26 -17 113 -4 121 5 3 42 10 82 16 110 15 115 18 87 39
-13 10 -77 48 -143 86 -145 82 -408 248 -642 403 -95 62 -176 111 -181 108
-23 -14 -154 -197 -149 -209 7 -19 170 -141 394 -296 104 -71 196 -138 205
-148 16 -18 54 -170 45 -179 -3 -3 -36 41 -74 98 l-68 103 -90 2 c-49 2 -99 5
-111 8 -13 3 -38 34 -68 85 -26 44 -52 80 -57 80 -36 0 -319 -88 -319 -99 0
-4 53 -13 118 -20 64 -7 125 -15 134 -17 9 -3 37 -38 63 -79 l46 -75 109 0
108 0 62 -72 c35 -40 58 -74 52 -76 -6 -2 -49 10 -94 27 -166 61 -312 111
-323 111 -6 0 -27 -37 -46 -82 -19 -45 -35 -85 -37 -89 -2 -4 28 -12 65 -18
254 -43 525 -185 682 -357 29 -32 90 -113 134 -179 151 -227 230 -296 443
-389 105 -46 304 -109 385 -122 21 -4 39 -10 39 -15 0 -10 -65 -29 -100 -29
-40 0 -257 56 -350 90 -47 17 -92 33 -101 36 -24 8 -29 -22 -29 -168 0 -111 2
-128 18 -136 17 -10 151 -42 171 -42 6 0 11 17 11 39 0 34 -3 39 -32 47 -29 8
-33 14 -36 48 l-3 38 42 -7 c23 -4 62 -12 88 -19 l46 -11 3 -83 3 -82 63 0 63
0 7 71 7 71 47 -6 c26 -4 115 -13 197 -21 180 -19 185 -20 185 -50 0 -25 -22
-35 -77 -35 -31 0 -33 -2 -33 -34 l0 -34 63 -6 c34 -3 95 -7 136 -8 l75 -3 13
65 c7 36 15 92 16 125 2 57 1 60 -23 62 -14 1 -78 5 -143 9 l-119 6 32 33 33
34 -39 53 c-89 122 -167 219 -182 227 -42 21 -353 123 -359 117 -6 -6 21 -193
29 -202 8 -7 232 -64 255 -64 20 0 21 2 11 31 -12 34 -35 47 -145 79 -59 17
-73 24 -73 40 0 11 4 20 9 20 25 0 213 -49 224 -59 13 -10 32 -60 47 -128 5
-23 4 -33 -4 -33 -27 0 -348 89 -361 100 -8 7 -15 25 -15 40 0 14 -4 51 -10
81 -5 30 -12 70 -15 89 -4 28 -17 44 -63 80 -85 67 -199 177 -249 243 -47 61
-129 223 -139 276 l-6 31 61 0 c33 0 61 -2 61 -5 0 -3 -9 -23 -20 -45 -14 -27
-17 -41 -9 -46 12 -7 74 -20 257 -54 l102 -19 73 -67 c230 -215 570 -363 1176
-515 251 -62 339 -92 473 -160 43 -21 84 -36 93 -33 18 7 18 7 6 36 -6 13 -17
49 -26 80 l-15 56 -183 60 c-100 33 -337 108 -527 167 -469 145 -572 196 -846
422 -153 126 -239 269 -300 500 -57 213 -55 184 -63 1113 -10 1145 2 1650 44
1753 9 21 7 21 -36 3 -58 -25 -171 -111 -239 -182 -102 -108 -99 -97 -52 -148
29 -31 43 -58 51 -97 21 -96 30 -249 31 -506 l0 -251 -62 -51 c-35 -28 -99
-80 -143 -116 l-80 -66 -3 53 c-3 50 15 331 39 603 16 183 47 392 70 470 20
65 27 76 112 160 209 205 383 268 610 220 64 -13 177 -58 177 -69 0 -3 -47 -2
-105 1 -84 5 -113 3 -148 -11 -48 -18 -81 -47 -95 -87 -6 -15 -11 -487 -13
-1240 -2 -1275 -3 -1252 40 -1440 50 -222 156 -422 276 -523 139 -115 367
-227 835 -406 151 -58 454 -187 544 -232 32 -16 59 -28 60 -26 1 2 7 16 14 31
23 54 -7 83 -195 185 -93 49 -199 106 -238 125 -79 40 -85 31 50 79 97 35 176
53 350 83 185 31 219 31 253 4 l27 -21 3 92 c1 51 1 94 -1 96 -2 2 -18 1 -34
-2 -29 -6 -31 -8 -26 -44 l5 -38 -64 -11 c-131 -22 -281 -41 -287 -35 -3 3 6
28 21 56 30 55 29 68 -5 68 -16 0 -35 -20 -72 -77 l-50 -76 -129 -39 c-120
-35 -156 -43 -156 -35 0 6 81 192 85 196 7 7 95 -54 95 -65 0 -19 -27 -24 -40
-8 -18 21 -27 17 -39 -17 -19 -56 -17 -58 52 -39 34 10 77 24 95 30 33 12 33
13 15 30 -10 10 -55 43 -101 73 -46 30 -79 57 -75 60 4 2 33 10 63 17 74 17
76 19 37 40 -27 15 -43 17 -68 11 -104 -26 -181 -42 -185 -38 -2 2 3 24 11 48
13 35 13 48 4 67 -7 12 -17 21 -23 19 -5 -2 -23 -35 -38 -73 -16 -38 -37 -77
-48 -86 -24 -20 -269 -103 -277 -94 -6 5 39 149 56 183 5 9 18 4 44 -18 20
-17 37 -35 37 -40 0 -13 -44 -11 -57 2 -9 9 -14 1 -23 -31 -6 -23 -9 -44 -6
-47 6 -7 206 59 206 68 0 6 -59 48 -183 132 -46 31 -45 32 98 72 55 15 104 31
108 35 7 6 -13 61 -28 78 -5 6 -307 -97 -463 -157 l-152 -59 -41 47 c-23 25
-47 58 -55 73 -14 28 -14 28 43 57 87 43 374 155 495 193 103 31 108 34 108
61 0 15 -4 27 -9 27 -41 0 -464 -153 -591 -214 -41 -20 -80 -36 -86 -36 -16 0
-69 170 -91 290 -17 87 -18 190 -18 1255 0 1150 0 1160 21 1199 31 60 72 78
174 74 104 -4 160 -28 237 -103 57 -55 63 -76 38 -125 -21 -40 -53 -60 -96
-60 -51 0 -89 32 -89 75 0 45 26 60 78 45 56 -15 64 -14 50 9 -39 63 -125 64
-182 1 -43 -48 -51 -72 -32 -107 19 -37 50 -64 113 -99 50 -28 54 -28 79 -13
36 22 191 132 229 163 l30 24 -24 34 c-93 127 -223 235 -483 399 -208 132
-569 304 -679 324 -30 6 -41 2 -68 -21z m71 -2086 c-8 -8 -41 11 -116 68 -58
43 -106 82 -106 85 0 4 48 46 108 94 l107 87 9 -162 c6 -113 5 -165 -2 -172z
m8 -784 c0 -52 -2 -94 -5 -94 -10 0 -125 93 -125 101 0 12 114 98 123 92 4 -2
7 -47 7 -99z m1147 -671 c-16 -54 -78 -227 -82 -231 -2 -2 -26 8 -52 23 -77
45 -165 106 -160 112 9 9 272 113 286 113 8 0 11 -7 8 -17z m-932 -140 c22
-42 41 -80 43 -84 2 -4 -14 -4 -35 1 -21 4 -55 11 -76 15 -34 5 -38 9 -33 29
9 36 46 116 54 116 4 0 25 -35 47 -77z m1402 -35 c-40 -99 -91 -208 -98 -208
-5 0 -57 24 -116 54 l-107 54 -19 -25 c-15 -19 -25 -23 -46 -18 -65 16 -52 21
309 134 78 24 84 25 77 9z m-252 -185 c19 -9 35 -20 35 -25 0 -5 -18 1 -40 12
-22 11 -40 23 -40 25 0 8 7 6 45 -12z m153 -55 c-2 -6 -10 -14 -16 -16 -7 -2
-10 2 -6 12 7 18 28 22 22 4z"/>
<path d="M6640 5540 c-316 -127 -725 -368 -914 -539 -48 -44 -138 -161 -133
-174 2 -7 64 -54 137 -105 103 -72 137 -91 154 -86 36 12 122 70 145 100 40
51 10 122 -65 155 -37 17 -50 18 -84 9 -36 -10 -60 -33 -60 -58 0 -5 19 -3 42
5 55 19 88 6 88 -35 0 -87 -119 -111 -174 -34 -11 14 -20 42 -20 61 0 28 9 42
50 80 83 76 133 96 240 96 107 0 137 -12 167 -70 l22 -40 0 -1140 c0 -1204 0
-1195 -47 -1399 -49 -212 -161 -371 -348 -492 -77 -50 -261 -142 -420 -212
-185 -80 -405 -189 -545 -268 -182 -102 -169 -89 -149 -149 9 -28 18 -51 20
-53 1 -2 31 12 66 31 133 72 315 149 623 262 428 159 673 308 783 478 59 90
110 213 143 344 54 222 54 212 54 1503 0 1345 7 1232 -77 1287 -47 32 -137 42
-226 25 -114 -21 -5 48 117 74 134 28 263 13 374 -42 118 -60 302 -225 332
-298 36 -86 71 -353 105 -794 21 -272 24 -372 14 -372 -3 0 -66 51 -140 112
l-134 113 0 255 c1 253 10 406 31 508 8 41 20 63 51 94 l39 39 -27 37 c-76
102 -247 240 -319 258 -25 6 -27 5 -21 -12 4 -10 14 -57 22 -104 29 -172 36
-508 31 -1490 -5 -919 -6 -970 -26 -1075 -47 -252 -122 -450 -215 -567 -94
-118 -389 -336 -545 -403 -45 -19 -176 -64 -289 -101 -430 -136 -730 -236
-745 -247 -9 -7 -19 -23 -22 -37 -5 -22 -3 -25 25 -26 17 -1 41 -11 55 -24
l23 -22 104 36 c57 19 186 56 288 81 563 140 925 306 1165 534 l50 48 134 23
c154 26 201 37 201 49 0 5 -7 25 -16 46 -8 20 -13 39 -11 41 2 3 28 7 56 11
l52 6 -7 -29 c-24 -101 -59 -208 -86 -263 -38 -80 -160 -209 -263 -280 -71
-49 -191 -112 -237 -124 -12 -4 -20 -8 -18 -11 4 -3 154 -14 224 -16 19 0 19
0 0 -21 -44 -49 -236 -146 -363 -184 -32 -10 -26 2 39 79 37 44 62 65 78 65
24 1 23 -8 -6 -42 -8 -9 -13 -19 -10 -22 7 -8 188 84 188 96 0 5 -56 9 -133 9
l-133 0 -30 -31 c-44 -46 -149 -130 -237 -189 l-79 -52 38 -39 c44 -45 54 -39
-126 -65 -110 -15 -143 -25 -123 -37 31 -19 382 -197 389 -197 5 0 -23 31 -60
69 -65 66 -68 70 -45 75 29 6 297 36 322 36 15 0 17 -11 17 -85 0 -47 4 -85 9
-85 15 0 99 99 129 151 21 38 35 52 61 59 19 5 37 7 40 5 7 -8 -19 -86 -51
-149 -16 -32 -27 -61 -23 -64 11 -11 80 33 133 85 29 29 64 76 77 105 24 54
53 193 42 205 -4 3 -44 -10 -89 -30 -141 -60 -224 -81 -318 -81 -81 0 -170 17
-170 32 0 4 51 17 113 29 172 34 281 69 402 128 139 68 208 130 305 271 171
252 251 343 385 439 135 96 308 170 455 195 41 7 79 16 83 20 17 15 -14 49
-70 77 -56 27 -64 28 -203 28 -133 0 -150 -2 -200 -25 -30 -13 -78 -44 -107
-67 l-53 -43 0 27 c1 38 39 128 80 188 105 155 374 367 534 423 54 19 81 23
118 18 40 -6 49 -4 55 10 8 20 -59 84 -118 114 -94 49 -256 64 -346 34 -68
-23 -123 -64 -248 -184 -120 -114 -220 -193 -330 -260 -89 -54 -165 -103 -165
-106 0 -1 47 -8 105 -14 58 -7 105 -15 105 -17 0 -2 -37 -50 -82 -105 -46 -55
-91 -110 -100 -122 -9 -11 -19 -19 -21 -16 -14 14 -87 177 -87 193 0 11 20 83
45 161 25 78 49 159 55 181 13 53 12 52 115 126 146 104 180 131 180 142 0 6
-49 46 -110 90 -60 43 -124 91 -142 106 l-32 28 1 214 c0 118 4 221 9 230 5
10 76 67 158 128 82 61 152 118 155 128 4 10 11 81 16 158 5 77 16 241 24 365
30 458 38 616 35 655 l-4 40 -61 3 c-61 3 -62 3 -79 43 -10 21 -16 41 -13 44
2 3 29 8 59 13 l54 8 -3 34 c-4 64 -3 63 -107 58 l-94 -5 -35 36 c-20 20 -36
42 -36 48 0 6 42 26 93 46 103 39 107 47 65 115 -25 41 -36 40 -168 -13 -48
-19 -98 -35 -112 -35 -13 0 -39 14 -57 30 -31 29 -32 32 -17 49 26 28 123 76
204 100 42 13 72 27 72 35 0 19 -65 101 -99 125 -16 12 -37 21 -48 21 -10 0
-74 -23 -143 -50z m258 -1828 c51 -40 91 -79 89 -85 -4 -13 -185 -147 -197
-147 -15 0 -17 27 -12 172 3 105 8 146 16 141 6 -4 53 -40 104 -81z m-59 -962
c28 -22 51 -44 51 -49 0 -11 -96 -91 -109 -91 -7 0 -11 33 -11 90 0 50 4 90 9
90 5 0 32 -18 60 -40z m-210 -856 c11 -31 21 -60 21 -64 0 -8 -14 -12 -93 -25
l-37 -6 37 76 c21 41 40 75 44 75 3 0 16 -25 28 -56z"/>
<path d="M3340 4668 c-6 -29 -14 -71 -18 -93 l-8 -39 -86 -21 c-48 -11 -90
-23 -93 -27 -7 -7 121 -38 159 -38 19 0 27 -6 30 -22 29 -142 39 -178 46 -178
8 0 13 22 38 155 7 39 8 39 81 62 119 36 118 37 -51 69 -29 6 -29 6 -59 127
-6 26 -15 50 -19 52 -5 3 -13 -18 -20 -47z"/>
<path d="M4931 4548 c3 -97 5 -99 104 -130 50 -15 138 -39 198 -54 99 -25 107
-28 107 -51 0 -13 -6 -26 -14 -29 -19 -7 -160 19 -270 50 l-88 25 7 -37 c3
-20 12 -42 18 -48 7 -7 75 -26 152 -44 193 -43 189 -42 193 -69 4 -24 3 -24
-55 -18 -32 3 -106 9 -166 13 -103 7 -107 6 -101 -12 21 -56 31 -62 123 -69
95 -7 130 -19 96 -31 -133 -46 -237 -134 -296 -249 -39 -74 -38 -76 44 -96 60
-14 73 -9 82 33 12 56 54 128 102 174 48 48 158 105 236 125 42 10 48 14 43
33 -38 130 -48 195 -42 268 l6 78 -27 6 c-133 30 -259 76 -395 145 l-58 29 1
-42z"/>
<path d="M5975 4536 c-105 -50 -218 -92 -314 -116 l-44 -11 6 -59 c5 -63 -12
-179 -37 -249 -9 -25 -13 -48 -9 -51 5 -4 44 -19 88 -35 151 -51 239 -132 291
-268 19 -49 30 -67 40 -63 8 3 39 13 69 22 30 8 55 17 55 20 0 3 -14 32 -31
66 -49 96 -127 172 -233 223 -99 49 -101 47 38 64 82 10 99 19 111 60 l7 24
-118 -7 c-66 -4 -138 -10 -162 -13 -43 -6 -44 -6 -40 22 3 28 6 29 83 42 71
12 253 58 260 65 10 10 16 78 7 78 -6 0 -62 -13 -124 -29 -62 -16 -139 -32
-171 -36 l-58 -7 3 33 c3 32 4 33 78 49 151 34 310 84 314 99 11 37 18 131 10
130 -5 0 -58 -24 -119 -53z"/>
<path d="M3275 3994 c-53 -96 -95 -177 -93 -179 2 -2 34 10 72 27 37 16 70 28
72 26 3 -4 23 -511 24 -608 l0 -35 46 49 46 48 -7 274 c-5 183 -4 274 3 274 5
0 40 -11 77 -25 37 -14 69 -24 70 -23 2 2 -17 35 -41 73 -24 39 -72 116 -105
173 -34 56 -63 102 -64 102 -2 0 -47 -79 -100 -176z"/>
<path d="M2799 3983 l-14 -88 -84 -22 c-122 -32 -122 -35 0 -61 l84 -19 17
-74 c27 -117 28 -120 37 -115 6 4 25 98 34 176 2 9 32 25 76 40 41 14 76 30
78 36 2 6 -31 17 -74 25 l-78 14 -23 88 c-14 48 -28 87 -32 87 -4 0 -14 -39
-21 -87z"/>
<path d="M5437 3912 c-42 -42 -77 -82 -77 -87 0 -5 35 -44 77 -87 l76 -77 78
82 c56 60 75 86 69 97 -5 8 -39 45 -77 82 l-68 68 -78 -78z"/>
<path d="M4155 3938 c-12 -28 -20 -81 -23 -151 l-5 -109 50 -46 c53 -51 96
-105 107 -136 4 -11 -12 1 -34 27 -25 28 -89 76 -165 122 -78 48 -141 95 -169
127 l-45 49 -7 -27 c-7 -27 4 -98 21 -138 7 -15 4 -17 -11 -13 -10 3 -55 8
-99 12 l-80 6 51 -45 c59 -52 81 -94 65 -124 -6 -11 -60 -48 -121 -81 -60 -34
-122 -72 -137 -86 l-28 -24 75 2 c132 2 171 -39 151 -156 -6 -35 -11 -67 -11
-71 0 -4 21 11 48 35 26 23 96 65 156 94 110 53 118 65 40 65 -43 0 -43 11 2
48 49 41 149 72 227 71 l62 0 -65 -18 c-77 -21 -136 -50 -124 -60 5 -4 29 -13
54 -21 l45 -12 -25 -17 c-48 -31 -95 -79 -118 -120 -13 -23 -21 -41 -19 -41 3
0 21 7 40 15 116 48 247 -31 233 -141 -5 -41 -34 -104 -48 -104 -5 0 -8 -4 -8
-9 0 -5 20 -6 45 -3 26 2 45 1 45 -5 0 -12 -39 -53 -66 -70 -18 -11 -18 -12 6
-12 49 -2 124 33 170 79 l45 44 -30 4 c-43 5 -55 26 -48 82 5 44 4 47 -18 46
-20 -1 -25 5 -27 31 -2 18 1 49 7 69 6 21 8 40 6 42 -3 3 -28 7 -56 10 -71 7
-43 20 68 31 98 10 178 5 193 -14 9 -11 4 -41 -15 -87 -6 -16 -1 -18 36 -18
100 0 159 -40 159 -106 0 -46 20 -44 62 9 49 59 66 95 77 168 11 66 2 98 -18
61 -5 -10 -22 -27 -35 -36 -25 -16 -26 -16 -40 19 -8 19 -21 35 -29 35 -10 0
-16 18 -20 61 -9 105 -43 156 -212 324 -159 158 -190 202 -204 292 l-7 48 -17
-49 c-21 -61 -22 -118 -2 -160 8 -17 63 -76 121 -130 102 -96 174 -185 174
-216 0 -8 -14 6 -30 32 -16 26 -85 97 -154 158 -68 62 -138 131 -155 155 -46
64 -81 145 -81 188 0 49 -14 47 -35 -5z m377 -567 c37 -32 75 -91 59 -91 -33
0 -81 36 -96 72 -8 21 -15 41 -15 43 0 13 22 2 52 -24z"/>
<path d="M5773 3817 c-70 -9 -72 -10 -78 -40 -4 -18 -22 -56 -41 -84 -19 -29
-34 -55 -34 -58 0 -7 70 3 151 21 l66 15 6 77 c3 42 5 77 4 77 -1 1 -34 -3
-74 -8z"/>
<path d="M5174 3804 c3 -9 6 -41 6 -72 l0 -57 57 -18 c31 -10 76 -31 99 -47
38 -26 44 -27 63 -14 21 15 21 16 -19 74 -22 33 -44 76 -48 97 -7 34 -12 38
-47 45 -22 4 -57 7 -79 7 -31 1 -37 -2 -32 -15z"/>
<path d="M5535 3548 c-44 -16 -103 -55 -154 -103 -60 -55 -89 -71 -105 -55 -8
8 -6 21 11 50 12 22 19 40 16 40 -19 0 -136 -111 -183 -175 -40 -54 -100 -166
-100 -186 0 -7 24 10 53 37 67 63 138 114 205 148 67 34 192 66 246 65 26 -1
32 -3 16 -6 -87 -14 -232 -76 -319 -136 -81 -56 -178 -145 -240 -222 l-62 -77
48 -30 c26 -17 67 -46 91 -65 24 -19 44 -34 46 -32 2 2 27 47 56 99 116 208
195 301 296 347 81 37 158 41 236 13 l64 -22 44 22 c102 52 237 77 326 61 l49
-9 -43 38 c-91 81 -219 137 -339 147 -58 5 -91 1 -163 -17 -66 -18 -93 -21
-101 -13 -14 14 8 48 48 74 24 16 25 19 8 18 -11 0 -33 -5 -50 -11z"/>
<path d="M2830 3430 l0 -60 30 0 30 0 0 60 0 60 -30 0 -30 0 0 -60z"/>
<path d="M2830 3220 l0 -60 35 0 35 0 0 60 0 60 -35 0 -35 0 0 -60z"/>
<path d="M3593 3146 c-48 -51 -83 -98 -107 -148 -31 -64 -69 -177 -61 -186 2
-2 15 8 30 22 16 15 35 26 43 26 18 0 13 -37 -18 -149 -24 -91 -27 -252 -5
-356 20 -93 82 -218 139 -280 l46 -50 -6 52 c-11 92 -3 92 90 -1 142 -142 301
-203 501 -193 164 9 300 59 430 159 80 61 190 193 234 282 l31 61 -28 25 c-57
50 -164 135 -189 150 -23 14 -26 13 -37 -4 -57 -97 -213 -233 -300 -262 -150
-50 -327 44 -375 201 -53 170 -6 338 149 538 20 25 20 27 3 29 -61 5 -93 -6
-163 -58 -34 -25 -64 -43 -67 -40 -5 5 23 152 33 168 4 6 -2 8 -17 3 -44 -14
-146 -94 -219 -172 l-72 -78 6 101 c4 56 11 117 16 135 14 48 13 99 -2 99 -7
0 -45 -33 -85 -74z"/>
<path d="M3395 3198 l-40 -8 4 -163 c2 -89 5 -155 8 -147 3 8 21 54 40 101 29
74 34 96 31 156 l-3 69 -40 -8z"/>
<path d="M5640 3201 c0 -5 7 -14 15 -21 8 -7 22 -36 30 -65 l16 -52 70 -7 c39
-4 73 -5 75 -3 8 8 -9 147 -18 147 -5 0 -25 -12 -44 -27 l-35 -26 -29 22 c-36
26 -80 44 -80 32z"/>
<path d="M5970 3163 c-23 -72 -74 -155 -119 -194 -51 -45 -143 -92 -216 -110
-27 -6 -53 -15 -57 -18 -4 -4 0 -30 9 -59 l17 -52 51 6 c28 4 120 -1 204 -11
84 -9 155 -14 159 -10 4 3 -2 23 -13 43 l-20 37 -102 10 c-56 6 -104 13 -107
16 -3 3 29 21 71 39 90 40 191 132 235 215 42 81 41 84 -27 106 -33 10 -63 19
-67 19 -3 0 -12 -17 -18 -37z"/>
<path d="M5432 3117 c-39 -40 -72 -78 -72 -84 0 -6 33 -47 74 -90 l75 -78 80
80 c45 44 81 82 81 85 0 9 -149 160 -158 160 -4 0 -40 -33 -80 -73z"/>
<path d="M4444 3116 c-10 -41 17 -89 75 -133 59 -46 91 -97 91 -149 1 -73 30
-115 145 -210 292 -241 279 -222 280 -406 1 -121 3 -129 33 -191 25 -50 43
-73 79 -96 63 -42 76 -40 52 6 -27 52 -32 93 -20 140 13 48 50 99 51 71 0 -34
33 -114 66 -164 101 -152 325 -192 516 -92 31 17 66 41 79 54 l22 24 -69 0
c-73 0 -154 21 -175 46 -10 12 -3 14 43 14 111 0 240 62 299 143 78 108 76
265 -5 371 -52 69 -201 137 -296 135 -31 0 -33 -1 -16 -12 84 -53 120 -109
114 -177 -6 -63 -31 -94 -103 -129 -54 -27 -165 -50 -165 -35 0 3 8 18 19 32
43 61 51 145 21 224 -17 45 -73 118 -90 118 -3 0 -4 -15 -2 -34 6 -50 -22 -94
-74 -118 -72 -31 -103 -14 -348 190 -129 107 -171 132 -225 133 -76 2 -94 11
-109 54 -8 22 -18 52 -24 66 -11 32 -36 44 -119 59 -78 14 -95 23 -119 62
l-19 31 -7 -27z"/>
<path d="M2853 3073 c-9 -3 -13 -26 -13 -64 0 -59 0 -59 30 -59 l30 0 0 65 c0
67 -7 75 -47 58z"/>
<path d="M2847 2853 c-4 -3 -7 -28 -7 -55 l0 -48 35 0 35 0 0 55 c0 54 -1 55
-28 55 -16 0 -32 -3 -35 -7z"/>
<path d="M4402 2748 l-33 -20 1 -184 c1 -101 4 -184 6 -184 3 0 18 7 34 15
l30 16 0 189 c0 105 -1 190 -2 189 -2 0 -18 -10 -36 -21z"/>
<path d="M2844 2656 c-3 -8 -4 -31 -2 -52 3 -36 6 -39 36 -42 l32 -3 0 55 c0
56 0 56 -30 56 -17 0 -33 -6 -36 -14z"/>
<path d="M2850 2430 c0 -51 7 -58 44 -44 11 4 16 19 16 50 0 42 -1 44 -30 44
-29 0 -30 -1 -30 -50z"/>
<path d="M3362 2354 c-19 -8 -31 -18 -27 -24 9 -14 86 -63 91 -58 2 2 -4 25
-14 50 l-17 46 -33 -14z"/>
<path d="M7583 2278 c-43 -23 -118 -62 -167 -86 -88 -45 -196 -137 -196 -168
0 -19 1 -19 72 20 43 23 97 41 168 55 58 12 121 30 140 40 19 10 58 31 85 45
46 25 58 27 148 24 63 -2 97 1 97 8 0 20 -65 73 -109 89 -24 8 -70 15 -102 15
-49 0 -70 -6 -136 -42z"/>
<path d="M3138 2279 c-43 -17 -78 -34 -78 -38 0 -4 30 -24 66 -44 l65 -36 14
33 c19 44 30 116 19 116 -5 -1 -44 -14 -86 -31z"/>
<path d="M2872 2176 c-40 -18 -75 -35 -78 -38 -3 -3 28 -19 68 -36 l73 -31 11
27 c19 46 26 112 12 112 -7 0 -46 -15 -86 -34z"/>
<path d="M3630 1960 c0 -5 5 -10 11 -10 5 0 7 5 4 10 -3 6 -8 10 -11 10 -2 0
-4 -4 -4 -10z"/>
<path d="M4090 1769 l-21 -40 38 7 c21 3 69 12 106 20 38 8 71 14 75 14 4 1
-4 10 -17 20 -29 24 -70 26 -86 3 -12 -16 -14 -16 -38 0 -15 9 -29 17 -31 17
-3 0 -15 -18 -26 -41z"/>
<path d="M2065 1644 c30 -48 76 -104 85 -104 13 0 65 108 57 117 -5 4 -43 9
-85 12 l-76 3 19 -28z"/>
<path d="M4281 1594 c-46 -39 -43 -84 9 -135 28 -28 49 -39 70 -39 l30 0 -27
-55 c-15 -30 -30 -55 -34 -55 -18 0 -59 64 -59 91 0 22 -5 29 -19 29 -11 0
-21 6 -24 13 -6 16 -41 -3 -45 -26 -2 -8 16 -45 40 -81 24 -36 52 -80 63 -98
11 -18 27 -34 36 -36 8 -1 36 13 61 33 l46 35 28 -33 27 -32 -39 -7 c-21 -4
-70 -11 -108 -15 -48 -6 -72 -13 -80 -25 -11 -18 -3 -61 35 -187 11 -35 17
-72 14 -82 -3 -10 -26 -27 -50 -39 -52 -25 -60 -45 -14 -36 17 3 58 6 91 6
l60 0 -7 28 c-8 30 -22 211 -17 217 4 4 102 -22 110 -29 3 -3 -3 -39 -12 -79
-37 -154 7 -177 197 -100 54 22 59 22 88 7 20 -10 29 -20 25 -30 -4 -11 0 -15
17 -12 30 4 32 33 7 91 -16 36 -26 47 -43 47 -13 0 -27 -4 -32 -9 -12 -10
-135 -23 -135 -14 0 4 18 37 40 74 50 84 55 111 35 174 -9 28 -22 78 -30 113
-16 73 -59 155 -93 183 -15 11 -40 19 -63 19 -43 0 -47 5 -22 32 15 17 15 18
-10 18 -16 0 -30 8 -37 20 -11 21 -60 50 -84 50 -8 0 -28 -12 -45 -26z"/>
<path d="M6668 1613 c-40 -2 -68 -8 -68 -15 0 -6 14 -35 31 -65 l31 -54 24 22
c37 34 77 97 69 108 -3 6 -9 10 -13 9 -4 -1 -37 -3 -74 -5z"/>
<path d="M2307 1441 c-20 -5 -40 -10 -43 -14 -7 -7 117 -106 134 -107 8 0 13
17 14 50 0 28 1 56 2 63 1 14 -52 18 -107 8z"/>
<path d="M6400 1332 c0 -33 5 -64 11 -67 15 -10 160 97 148 109 -2 3 -39 8
-82 12 l-77 7 0 -61z"/>
<path d="M5875 1080 c-109 -29 -181 -53 -183 -61 -8 -26 -127 -135 -202 -184
-77 -50 -245 -141 -315 -171 l-40 -16 19 21 c23 26 132 97 249 165 47 26 106
66 132 87 47 39 91 87 84 93 -2 2 -42 -2 -89 -9 -47 -7 -115 -16 -152 -20
l-67 -6 -30 -54 c-27 -48 -194 -225 -213 -225 -18 0 20 67 67 118 54 59 85
109 85 138 0 14 -8 15 -55 10 -30 -3 -80 -9 -110 -12 l-55 -6 -1 -82 c-2 -73
-3 -90 -8 -121 0 -5 -21 10 -45 34 l-44 44 -37 -36 -37 -36 21 -29 c34 -49 42
-83 42 -182 0 -72 -6 -116 -25 -183 -15 -48 -26 -89 -26 -92 0 -2 33 28 73 68
116 116 301 237 619 405 64 34 139 75 168 92 53 31 400 288 400 296 0 10 -58
-1 -225 -46z"/>
<path d="M2880 1089 c0 -15 132 -149 191 -195 31 -24 135 -84 230 -135 391
-206 514 -287 683 -449 78 -74 88 -75 51 0 -32 64 -55 165 -55 244 0 100 27
165 91 219 37 32 69 81 69 107 0 12 -76 -8 -122 -31 -23 -12 -62 -41 -88 -65
-26 -24 -50 -44 -54 -44 -3 0 -6 47 -6 104 l0 104 -67 6 c-38 4 -87 9 -110 13
-36 4 -43 2 -43 -11 0 -29 30 -79 79 -131 45 -48 90 -125 73 -125 -17 0 -190
187 -211 228 -12 24 -27 45 -34 47 -14 6 -311 44 -314 41 -1 -1 11 -19 28 -39
31 -38 146 -117 291 -200 46 -26 104 -66 128 -88 l45 -39 -60 25 c-86 37 -267
138 -342 192 -35 25 -89 73 -119 108 -50 57 -61 64 -112 74 -31 6 -94 20 -139
30 -46 10 -83 15 -83 10z"/>
</g>
</svg>
